<svg fill="black" xmlns="http://www.w3.org/2000/svg" viewBox="0 0 64 80" x="0px" y="0px"><title>1</title><path d="M57,17.23129H55.5V11.5018a3.00328,3.00328,0,0,0-3-3H28.61035a3.87951,3.87951,0,0,0-2.80957-1.52924L6.999,6.98129a3.00339,3.00339,0,0,0-2.999,3v44.0498a3.00328,3.00328,0,0,0,3,3H57a3.00328,3.00328,0,0,0,3-3V20.23129A3.00328,3.00328,0,0,0,57,17.23129ZM52.5,10.5018a1.001,1.001,0,0,1,1,1v5.72949H38.19824a.993.993,0,0,1-.68847-.27539L30.7157,10.5018ZM58,54.03109a1.00067,1.00067,0,0,1-1,1H7a1.00067,1.00067,0,0,1-1-1V9.98129a1.00109,1.00109,0,0,1,.999-1L25.80176,8.9725a.99647.99647,0,0,1,.68945.2749l9.64063,9.15772a2.98174,2.98174,0,0,0,2.0664.82617c1.56983-.00147,17.74945.001,18.80176,0a1.001,1.001,0,0,1,1,1Z"/><path d="M35.9082,27.56332a6.2546,6.2546,0,0,0-3.91015,1.35644,6.24638,6.24638,0,0,0-3.9043-1.35644c-5.48737-.12225-8.41919,6.93384-4.46857,10.73443L31.294,45.96566a.99962.99962,0,0,0,1.41406,0l7.64746-7.65429A6.31805,6.31805,0,0,0,35.9082,27.56332Zm3.03418,9.333L32,43.84457l-6.77637-6.77051c-4.211-4.04773,1.67255-10.25415,5.91907-6.23968a1.06524,1.06524,0,0,0,1.72449-.01477C36.96741,26.91561,42.8609,32.79312,38.94238,36.89633Z"/></svg>